<svg xmlns="http://www.w3.org/2000/svg" width="44.127" height="44.127" viewBox="0 0 44.127 44.127">
  <path id="ic_sentiment_very_satisfied_24px" d="M24.042,2A22.064,22.064,0,1,0,46.127,24.064,22.039,22.039,0,0,0,24.042,2Zm.022,39.715A17.651,17.651,0,1,1,41.715,24.064,17.646,17.646,0,0,1,24.064,41.715Zm2.206-22.2,2.339,2.339,2.339-2.339,2.339,2.339,2.339-2.339-4.678-4.678Zm-9.09,0,2.339,2.339,2.339-2.339L17.18,14.841,12.5,19.519l2.339,2.339ZM24.064,36.2a12.127,12.127,0,0,0,11.275-7.722H12.789A12.127,12.127,0,0,0,24.064,36.2Z" transform="translate(-2 -2)" fill="#c00a7c"/>
</svg>
